<svg version="1.1" viewBox="0.0 0.0 351.0734908136483 141.27034120734908" fill="none" stroke="none" stroke-linecap="square" stroke-miterlimit="10" xmlns:xlink="http://www.w3.org/1999/xlink" xmlns="http://www.w3.org/2000/svg"><clipPath id="p.0"><path d="m0 0l351.0735 0l0 141.27034l-351.0735 0l0 -141.27034z" clip-rule="nonzero"/></clipPath><g clip-path="url(#p.0)"><path fill="#000000" fill-opacity="0.0" d="m0 0l351.0735 0l0 141.27034l-351.0735 0z" fill-rule="evenodd"/><path fill="#000000" fill-opacity="0.0" d="m0 0l572.0315 0l0 135.74803l-572.0315 0z" fill-rule="evenodd"/><path fill="#000000" d="m46.15625 102.316246q-9.703125 0 -17.046875 -4.359375q-7.34375 -4.375 -11.421875 -12.203125q-4.078125 -7.828125 -4.078125 -18.1875q0 -10.28125 4.078125 -18.09375q4.078125 -7.828125 11.421875 -12.25q7.34375 -4.421875 17.046875 -4.421875q9.890625 0 17.234375 4.421875q7.34375 4.421875 11.375 12.25q4.03125 7.8125 4.03125 18.09375q0 10.359375 -4.03125 18.1875q-4.03125 7.828125 -11.375 12.203125q-7.34375 4.359375 -17.234375 4.359375zm0 -7.109375q7.296875 0 12.8125 -3.3125q5.515625 -3.3125 8.53125 -9.5q3.03125 -6.1875 3.03125 -14.828125q0 -8.640625 -3.03125 -14.828125q-3.015625 -6.203125 -8.53125 -9.46875q-5.515625 -3.265625 -12.8125 -3.265625q-7.203125 0 -12.734375 3.265625q-5.515625 3.265625 -8.546875 9.46875q-3.015625 6.1875 -3.015625 14.828125q0 8.640625 3.015625 14.828125q3.03125 6.1875 8.546875 9.5q5.53125 3.3125 12.734375 3.3125zm46.649963 5.953125l0 -55.875q0 -4.609375 1.53125 -7.53125q1.546875 -2.9375 4.5625 -4.328125q3.03125 -1.390625 7.4375 -1.390625l5.484375 0l0 6.921875l-4.234375 0q-3.546875 0 -5.140625 1.4375q-1.578125 1.4375 -1.578125 5.078125l0 55.6875l-8.0625 0zm-7.390625 -41.5625l0 -6.828125l27.640625 0l0 6.828125l-27.640625 0zm40.03061 41.5625l0 -55.875q0 -4.609375 1.53125 -7.53125q1.546875 -2.9375 4.5625 -4.328125q3.03125 -1.390625 7.4375 -1.390625l5.484375 0l0 6.921875l-4.234375 0q-3.546875 0 -5.140625 1.4375q-1.578125 1.4375 -1.578125 5.078125l0 55.6875l-8.0625 0zm-7.390625 -41.5625l0 -6.828125l27.640625 0l0 6.828125l-27.640625 0zm56.358734 41.5625q-4.328125 0 -7.5 -1.34375q-3.15625 -1.34375 -4.84375 -4.5625q-1.671875 -3.21875 -1.671875 -8.6875l0 -26.96875l-8.453125 0l0 -6.828125l8.453125 0l1.046875 -11.703125l7.015625 0l0 11.703125l14.015625 0l0 6.828125l-14.015625 0l0 26.96875q0 4.515625 1.8125 6.109375q1.828125 1.578125 6.4375 1.578125l5.1875 0l0 6.90625l-7.484375 0zm34.366364 1.15625q-5.859375 0 -9.796875 -2.0625q-3.9375 -2.0625 -5.859375 -5.46875q-1.921875 -3.421875 -1.921875 -7.453125q0 -4.890625 2.546875 -8.296875q2.546875 -3.40625 7.203125 -5.1875q4.65625 -1.78125 10.984375 -1.78125l12.78125 0q0 -4.5 -1.40625 -7.515625q-1.390625 -3.03125 -4.03125 -4.5625q-2.625 -1.546875 -6.5625 -1.546875q-4.609375 0 -7.96875 2.3125q-3.359375 2.296875 -4.140625 6.8125l-8.25 0q0.578125 -5.1875 3.5 -8.6875q2.9375 -3.515625 7.4375 -5.375q4.515625 -1.875 9.421875 -1.875q6.71875 0 11.171875 2.453125q4.46875 2.4375 6.671875 6.8125q2.21875 4.359375 2.21875 10.3125l0 29.953125l-7.203125 0l-0.484375 -8.546875l0 0q-0.953125 2.015625 -2.453125 3.796875q-1.484375 1.78125 -3.453125 3.078125q-1.96875 1.28125 -4.5625 2.046875q-2.578125 0.78125 -5.84375 0.78125zm1.25 -6.8125q3.359375 0 6.09375 -1.390625q2.734375 -1.40625 4.65625 -3.84375q1.921875 -2.453125 2.921875 -5.421875q1.015625 -2.984375 1.015625 -6.25l0 -0.28125l-12.109375 0q-4.703125 0 -7.578125 1.109375q-2.875 1.09375 -4.125 3.0625q-1.25 1.96875 -1.25 4.46875q0 2.59375 1.203125 4.515625q1.203125 1.90625 3.546875 2.96875q2.359375 1.0625 5.625 1.0625zm64.98959 5.65625l-23.04686 -26.5l21.031235 -21.890625l9.890625 0l-24.109375 24.78125l0.109375 -5.765625l26.390625 29.375l-10.265625 0zm-29.76561 0l0 -69.125l8.0625 0l0 69.125l-8.0625 0zm66.14671 1.15625q-6.71875 0 -12.0 -3.171875q-5.28125 -3.171875 -8.265625 -8.875q-2.96875 -5.71875 -2.96875 -13.296875q0 -7.6875 2.921875 -13.34375q2.9375 -5.671875 8.265625 -8.828125q5.328125 -3.171875 12.234375 -3.171875q7.109375 0 12.09375 3.171875q5.0 3.15625 7.640625 8.296875q2.640625 5.140625 2.640625 11.28125q0 0.953125 0 2.015625q0 1.046875 -0.09375 2.390625l-39.65625 0l0 -6.234375l31.78125 0q-0.296875 -6.625 -4.375 -10.359375q-4.078125 -3.75 -10.21875 -3.75q-4.03125 0 -7.59375 1.875q-3.546875 1.875 -5.65625 5.46875q-2.109375 3.59375 -2.109375 8.96875l0 2.6875q0 5.953125 2.15625 9.984375q2.15625 4.03125 5.65625 6.0625q3.515625 2.015625 7.546875 2.015625q5.09375 0 8.390625 -2.25q3.3125 -2.265625 4.859375 -6.203125l7.96875 0q-1.25 4.40625 -4.140625 7.828125q-2.875 3.40625 -7.15625 5.421875q-4.265625 2.015625 -9.921875 2.015625z" fill-rule="nonzero"/></g></svg>