<svg version="1.1" viewBox="0.0 0.0 404.0813648293963 136.4435695538058" fill="none" stroke="none" stroke-linecap="square" stroke-miterlimit="10" xmlns:xlink="http://www.w3.org/1999/xlink" xmlns="http://www.w3.org/2000/svg"><clipPath id="p.0"><path d="m0 0l404.08136 0l0 136.44357l-404.08136 0l0 -136.44357z" clip-rule="nonzero"/></clipPath><g clip-path="url(#p.0)"><path fill="#000000" fill-opacity="0.0" d="m0 0l404.08136 0l0 136.44357l-404.08136 0z" fill-rule="evenodd"/><path fill="#000000" fill-opacity="0.0" d="m0 0l718.96063 0l0 135.74803l-718.96063 0z" fill-rule="evenodd"/><path fill="#000000" d="m11.203125 101.159996l0 -2.015625l1.546875 -0.484375q2.015625 -0.765625 2.734375 -2.015625q0.71875 -1.25 0.71875 -3.359375q0.09375 -5.46875 0.09375 -10.984375q0 -5.53125 0 -11.09375l0 -3.453125q0 -5.5625 -0.046875 -11.078125q-0.046875 -5.53125 -0.046875 -11.09375q0 -2.3125 -0.671875 -3.5q-0.671875 -1.203125 -2.78125 -1.875l-1.546875 -0.484375l0 -2.015625l27.078125 0q11.515625 0 16.703125 4.28125q5.1875 4.265625 5.1875 10.78125q0 5.0 -3.65625 8.984375q-3.640625 3.984375 -12.765625 5.703125q10.5625 1.15625 15.265625 5.484375q4.703125 4.3125 4.703125 10.5625q0 3.0625 -1.34375 6.1875q-1.34375 3.109375 -4.5625 5.703125q-3.21875 2.59375 -8.6875 4.1875q-5.46875 1.578125 -13.828125 1.578125l-24.09375 0zm18.71875 -34.375l4.515625 0q6.53125 0 9.453125 -2.921875q2.9375 -2.921875 2.9375 -10.03125q0 -7.390625 -2.6875 -10.359375q-2.6875 -2.984375 -8.453125 -2.984375l-5.765625 0l0 26.296875zm0 31.59375l5.28125 0q7.203125 0 10.75 -3.546875q3.5625 -3.5625 3.5625 -11.4375q0 -7.578125 -3.40625 -10.6875q-3.40625 -3.125 -11.1875 -3.125l-5.0 0l0 28.796875zm38.11772 2.78125l0 -1.828125l1.4375 -0.46875q1.921875 -0.484375 2.640625 -1.640625q0.71875 -1.15625 0.71875 -3.078125l0 -28.125q-0.09375 -2.109375 -0.765625 -3.203125q-0.671875 -1.109375 -2.59375 -1.5l-1.4375 -0.375l0 -1.734375l15.640625 -5.5625l1.15625 1.046875l0.875 8.453125l0 0.671875q1.4375 -2.6875 3.640625 -4.984375q2.203125 -2.3125 4.796875 -3.75q2.59375 -1.4375 5.1875 -1.4375q3.640625 0 5.46875 1.921875q1.828125 1.90625 1.828125 4.890625q0 3.265625 -1.828125 4.953125q-1.828125 1.671875 -4.40625 1.671875q-3.84375 0 -6.625 -3.453125l-0.203125 -0.203125q-0.953125 -1.140625 -2.15625 -1.28125q-1.203125 -0.15625 -2.34375 1.1875q-0.96875 0.96875 -1.78125 2.265625q-0.8125 1.296875 -1.484375 3.015625l0 25.15625q0 1.828125 0.765625 3.03125q0.765625 1.1875 2.59375 1.671875l2.875 0.859375l0 1.828125l-24.0 0zm53.761856 1.34375q-5.46875 0 -9.265625 -3.109375q-3.796875 -3.125 -3.796875 -8.984375q0 -4.609375 4.46875 -8.5q4.46875 -3.890625 14.0625 -5.703125q1.640625 -0.390625 3.796875 -0.71875q2.15625 -0.34375 4.265625 -0.734375l0 -6.8125q0 -6.53125 -1.640625 -9.015625q-1.625 -2.5 -5.171875 -2.5l-0.28125 0q-2.21875 0 -3.515625 1.390625q-1.296875 1.390625 -1.671875 4.5625l-0.296875 1.25q-0.28125 3.828125 -2.015625 5.609375q-1.71875 1.78125 -4.3125 1.78125q-2.40625 0 -4.0 -1.484375q-1.578125 -1.5 -1.578125 -3.890625q0 -3.9375 2.6875 -6.625q2.703125 -2.6875 7.15625 -4.03125q4.46875 -1.34375 9.65625 -1.34375q8.546875 0 13.046875 4.125q4.515625 4.125 4.515625 13.4375l0 21.40625q0 4.125 3.9375 4.125l2.203125 0l0.96875 1.0625q-1.734375 2.203125 -3.84375 3.40625q-2.109375 1.203125 -5.765625 1.203125q-4.125 0 -6.578125 -1.96875q-2.4375 -1.96875 -3.203125 -5.234375q-3.078125 3.265625 -6.0625 5.28125q-2.96875 2.015625 -7.765625 2.015625zm5.5625 -6.140625q1.921875 0 3.640625 -0.859375q1.734375 -0.875 4.328125 -2.890625l0 -15.359375q-2.5 0.390625 -5.078125 0.96875q-4.140625 0.953125 -6.6875 3.546875q-2.53125 2.59375 -2.53125 7.0q0 3.84375 1.765625 5.71875q1.78125 1.875 4.5625 1.875zm29.57161 4.796875l0 -1.921875l2.109375 -0.578125q1.53125 -0.46875 2.015625 -1.375q0.484375 -0.921875 0.578125 -2.46875l0 -19.0q0 -3.171875 0 -5.375q0 -2.203125 -0.09375 -5.1875q0 -1.625 -0.484375 -2.53125q-0.484375 -0.921875 -2.109375 -1.3125l-2.015625 -0.46875l0 -1.734375l15.546875 -5.5625l1.15625 1.046875l0.671875 6.4375q3.359375 -3.078125 7.484375 -5.28125q4.140625 -2.203125 8.453125 -2.203125q4.796875 0 7.484375 1.921875q2.6875 1.90625 4.125 5.84375q3.65625 -3.640625 8.0625 -5.703125q4.421875 -2.0625 8.75 -2.0625q6.515625 0 9.78125 3.265625q3.265625 3.265625 3.265625 10.265625l0 27.75q0 3.0625 2.6875 3.828125l1.828125 0.484375l0 1.921875l-21.59375 0l0 -1.921875l1.71875 -0.484375q2.59375 -0.859375 2.59375 -3.9375l0 -28.125q0 -4.125 -1.484375 -5.609375q-1.484375 -1.484375 -4.84375 -1.484375q-2.59375 0 -4.90625 1.0625q-2.296875 1.046875 -5.078125 3.25q0.5625 2.875 0.5625 6.625l0 24.390625q0.109375 1.625 0.625 2.546875q0.53125 0.90625 2.0625 1.28125l1.640625 0.484375l0 1.921875l-21.703125 0l0 -1.921875l2.015625 -0.578125q1.546875 -0.46875 2.0625 -1.375q0.53125 -0.921875 0.53125 -2.46875l0 -28.03125q0 -3.921875 -1.4375 -5.546875q-1.4375 -1.640625 -4.890625 -1.640625q-4.421875 0 -9.5 4.21875l0 31.109375q0 3.15625 2.6875 3.828125l1.625 0.484375l0 1.921875l-21.984375 0zm107.23198 1.34375q-7.109375 0 -12.437515 -2.96875q-5.328125 -2.984375 -8.25 -8.453125q-2.921875 -5.46875 -2.921875 -13.0625q0 -7.578125 3.109375 -13.046875q3.125 -5.46875 8.453125 -8.390625q5.3281403 -2.9375 12.04689 -2.9375q6.71875 0 12.046875 2.9375q5.328125 2.921875 8.4375 8.34375q3.125 5.421875 3.125 13.09375q0 7.59375 -2.921875 13.109375q-2.921875 5.515625 -8.203125 8.453125q-5.28125 2.921875 -12.484375 2.921875zm0 -2.6875q3.453125 0 5.609375 -1.875q2.171875 -1.875 3.125 -6.578125q0.96875 -4.703125 0.96875 -13.140625q0 -8.546875 -0.96875 -13.296875q-0.953125 -4.75 -3.125 -6.625q-2.15625 -1.875 -5.609375 -1.875q-3.453125 0 -5.5625 1.875q-2.109375 1.875 -3.1250153 6.625q-1.015625 4.75 -1.015625 13.296875q0 8.4375 1.015625 13.140625q1.0156403 4.703125 3.1250153 6.578125q2.109375 1.875 5.5625 1.875zm52.511963 2.6875q-7.109375 0 -12.4375 -2.96875q-5.328125 -2.984375 -8.25 -8.453125q-2.921875 -5.46875 -2.921875 -13.0625q0 -7.578125 3.109375 -13.046875q3.125 -5.46875 8.453125 -8.390625q5.328125 -2.9375 12.046875 -2.9375q6.71875 0 12.046875 2.9375q5.328125 2.921875 8.4375 8.34375q3.125 5.421875 3.125 13.09375q0 7.59375 -2.921875 13.109375q-2.921875 5.515625 -8.203125 8.453125q-5.28125 2.921875 -12.484375 2.921875zm0 -2.6875q3.453125 0 5.609375 -1.875q2.171875 -1.875 3.125 -6.578125q0.96875 -4.703125 0.96875 -13.140625q0 -8.546875 -0.96875 -13.296875q-0.953125 -4.75 -3.125 -6.625q-2.15625 -1.875 -5.609375 -1.875q-3.453125 0 -5.5625 1.875q-2.109375 1.875 -3.125 6.625q-1.015625 4.75 -1.015625 13.296875q0 8.4375 1.015625 13.140625q1.015625 4.703125 3.125 6.578125q2.109375 1.875 5.5625 1.875zm28.031982 1.34375l0 -1.828125l1.4375 -0.46875q1.921875 -0.484375 2.640625 -1.640625q0.71875 -1.15625 0.71875 -3.078125l0 -28.125q-0.09375 -2.109375 -0.765625 -3.203125q-0.671875 -1.109375 -2.59375 -1.5l-1.4375 -0.375l0 -1.734375l15.640625 -5.5625l1.15625 1.046875l0.875 8.453125l0 0.671875q1.4375 -2.6875 3.640625 -4.984375q2.203125 -2.3125 4.796875 -3.75q2.59375 -1.4375 5.1875 -1.4375q3.640625 0 5.46875 1.921875q1.828125 1.90625 1.828125 4.890625q0 3.265625 -1.828125 4.953125q-1.828125 1.671875 -4.40625 1.671875q-3.84375 0 -6.625 -3.453125l-0.203125 -0.203125q-0.953125 -1.140625 -2.15625 -1.28125q-1.203125 -0.15625 -2.34375 1.1875q-0.96875 0.96875 -1.78125 2.265625q-0.8125 1.296875 -1.484375 3.015625l0 25.15625q0 1.828125 0.765625 3.03125q0.765625 1.1875 2.59375 1.671875l2.875 0.859375l0 1.828125l-24.0 0z" fill-rule="nonzero"/></g></svg>